{"title":"Rad 1986","uid":14438612,"size":1224159232,"categoryP":"video","categoryS":"movies","magnet":"?xt=urn:btih:5d7bbf829a252c4ffe1cf461a5a9edd259308635&amp;dn=Rad+1986&amp;tr=udp%3A%2F%2Ftracker.leechers-paradise.org%3A6969&amp;tr=udp%3A%2F%2Fzer0day.ch%3A1337&amp;tr=udp%3A%2F%2Fopen.demonii.com%3A1337&amp;tr=udp%3A%2F%2Ftracker.coppersurfer.tk%3A6969&amp;tr=udp%3A%2F%2Fexodus.desync.com%3A6969","seeders":0,"leechers":1,"uploader":"jlnukka","files":1,"time":1461656600,"description":"Format                         : AVI\r\nFormat/Info                    : Audio Video Interleave\r\nFile size                      : 1.14 GiB\r\nDuration                       : 1h 32mn\r\nOverall bit rate               : 1 756 Kbps\r\nWriting application            : VirtualDubMod 1.5.10.2 (build 2540/release)\r\nWriting library                : VirtualDubMod build 2540/release\r\n\r\nVideo\r\nID                             : 0\r\nFormat                         : MPEG-4 Visual\r\nFormat profile                 : Advanced   \r\nFormat settings, BVOP          : 2\r\nFormat settings, QPel          : No\r\nFormat settings, GMC           : No warppoints\r\nFormat settings, Matrix        : Default (H.263)\r\nMuxing mode                    : Packed bitstream\r\nCodec ID                       : XVID\r\nCodec ID/Hint                  : XviD\r\nDuration                       : 1h 32mn\r\nBit rate                       : 1 298 Kbps\r\nWidth                          : 720 pixels\r\nHeight                         : 384 pixels\r\nDisplay aspect ratio           : 1.85:1\r\nFrame rate                     : 23.976 fps\r\nColor space                    : YUV\r\nChroma subsampling             : 4:2:0\r\nBit depth                      : 8 bits\r\nScan type                      : Progressive\r\nCompression mode               : Lossy\r\nBits/(Pixel*Frame)             : 0.196\r\nStream size                    : 863 MiB (74%)\r\nWriting library                : XviD 64\r\n\r\nAudio\r\nID                             : 1\r\nFormat                         : AC-3\r\nFormat/Info                    : Audio Coding 3\r\nMode extension                 : CM (complete main)\r\nFormat settings, Endianness    : Big\r\nCodec ID                       : 2000\r\nDuration                       : 1h 32mn\r\nBit rate mode                  : Constant\r\nBit rate                       : 448 Kbps\r\nChannel(s)                     : 6 channels\r\nChannel positions              : Front: L C R, Side: L R, LFE\r\nSampling rate                  : 48.0 KHz\r\nCompression mode               : Lossy\r\nStream size                    : 298 MiB (26%)\r\nAlignment                      : Split accross interleaves\r\nInterleave, duration           : 42 ms (1.00 video frame)\r\nInterleave, preload duration   : 500 ms","torrent":{"xt":"urn:btih:5d7bbf829a252c4ffe1cf461a5a9edd259308635","amp;dn":"Rad+1986","amp;tr":["udp%3A%2F%2Ftracker.leechers-paradise.org%3A6969","udp%3A%2F%2Fzer0day.ch%3A1337","udp%3A%2F%2Fopen.demonii.com%3A1337","udp%3A%2F%2Ftracker.coppersurfer.tk%3A6969","udp%3A%2F%2Fexodus.desync.com%3A6969"],"infoHash":"5d7bbf829a252c4ffe1cf461a5a9edd259308635","infoHashBuffer":{"type":"Buffer","data":[93,123,191,130,154,37,44,79,254,28,244,97,165,169,237,210,89,48,134,53]},"announce":[],"urlList":[]}}